<?xml version="1.0" encoding="UTF-8" standalone="no"?>
<svg
   xmlns:dc="http://purl.org/dc/elements/1.1/"
   xmlns:cc="http://creativecommons.org/ns#"
   xmlns:rdf="http://www.w3.org/1999/02/22-rdf-syntax-ns#"
   xmlns:svg="http://www.w3.org/2000/svg"
   xmlns="http://www.w3.org/2000/svg"
   xmlns:sodipodi="http://sodipodi.sourceforge.net/DTD/sodipodi-0.dtd"
   xmlns:inkscape="http://www.inkscape.org/namespaces/inkscape"
   viewBox="0 0 512 512"
   id="svg2"
   version="1.1"
   inkscape:version="0.91 r13725"
   sodipodi:docname="burn.svg">
  <metadata
     id="metadata14">
    <rdf:RDF>
      <cc:Work
         rdf:about="">
        <dc:format>image/svg+xml</dc:format>
        <dc:type
           rdf:resource="http://purl.org/dc/dcmitype/StillImage" />
      </cc:Work>
    </rdf:RDF>
  </metadata>
  <defs
     id="defs12" />
  <sodipodi:namedview
     pagecolor="#ffffff"
     bordercolor="#666666"
     borderopacity="1"
     objecttolerance="10"
     gridtolerance="10"
     guidetolerance="10"
     inkscape:pageopacity="0"
     inkscape:pageshadow="2"
     inkscape:window-width="1920"
     inkscape:window-height="1001"
     id="namedview10"
     showgrid="false"
     inkscape:zoom="0.4609375"
     inkscape:cx="-71.59322"
     inkscape:cy="256"
     inkscape:window-x="-9"
     inkscape:window-y="-9"
     inkscape:window-maximized="1"
     inkscape:current-layer="svg2" />
  <path
     d="M0 0h512v512H0z"
     id="path4"
     style="fill:none" />
  <use
     transform="matrix(15 0 0 15 556 -44.001)"
     height="1052.362"
     width="744.094"
     id="use6" />
  <path
     d="M256 16C121 16 16 76 16 136c0 30 15 45 30 60-15 15-30 54.417-30 75v165c0 30 30 60 60 60h360c30 0 60-15 60-60V256c0-18.957-15-45-30-60 15-15 30-30 30-60 0-60-105-120-240-120zm0 60c105 0 180 15 180 60 0 15-15 45-30 60 15 15 30 60 30 75v165H76V271c0-15 15-60 30-75-15-15-30-45-30-60 0-45 75-60 180-60zm-10.375 27.125a15 15 0 0 0-10.844 4.375L107.5 234.78a15 15 0 0 0 0 21.22l10.625 10.594a15 15 0 0 0 21.22 0l127.28-127.28a15 15 0 0 0 0-21.19L256 107.5a15 15 0 0 0-10.375-4.375zm100.75 37.125a15 15 0 0 0-10.813 4.375L144.625 335.563a15 15 0 0 0 0 21.187l10.625 10.625a15 15 0 0 0 21.22 0l190.905-190.938a15 15 0 0 0 0-21.187l-10.594-10.625a15 15 0 0 0-10.405-4.375zM383.5 241a15 15 0 0 0-10.813 4.406l-127.28 127.28a15 15 0 0 0 0 21.19L256 404.5a15 15 0 0 0 21.22 0L404.5 277.22a15 15 0 0 0 0-21.22l-10.594-10.594A15 15 0 0 0 383.5 241z"
     fill="#fff"
     id="path8"
     style="fill:#357a38;fill-opacity:1" />
</svg>
