<?xml version="1.0" encoding="UTF-8" standalone="no"?>
<svg
   xmlns:dc="http://purl.org/dc/elements/1.1/"
   xmlns:cc="http://creativecommons.org/ns#"
   xmlns:rdf="http://www.w3.org/1999/02/22-rdf-syntax-ns#"
   xmlns:svg="http://www.w3.org/2000/svg"
   xmlns="http://www.w3.org/2000/svg"
   xmlns:sodipodi="http://sodipodi.sourceforge.net/DTD/sodipodi-0.dtd"
   xmlns:inkscape="http://www.inkscape.org/namespaces/inkscape"
   viewBox="0 0 512 512"
   id="svg2"
   version="1.1"
   inkscape:version="0.91 r13725"
   sodipodi:docname="crossed-swords.svg">
  <metadata
     id="metadata12">
    <rdf:RDF>
      <cc:Work
         rdf:about="">
        <dc:format>image/svg+xml</dc:format>
        <dc:type
           rdf:resource="http://purl.org/dc/dcmitype/StillImage" />
      </cc:Work>
    </rdf:RDF>
  </metadata>
  <defs
     id="defs10" />
  <sodipodi:namedview
     pagecolor="#ffffff"
     bordercolor="#666666"
     borderopacity="1"
     objecttolerance="10"
     gridtolerance="10"
     guidetolerance="10"
     inkscape:pageopacity="0"
     inkscape:pageshadow="2"
     inkscape:window-width="1920"
     inkscape:window-height="1001"
     id="namedview8"
     showgrid="false"
     inkscape:zoom="0.4609375"
     inkscape:cx="-36.88136"
     inkscape:cy="256"
     inkscape:window-x="-9"
     inkscape:window-y="-9"
     inkscape:window-maximized="1"
     inkscape:current-layer="svg2" />
  <path
     d="M0 0h512v512H0z"
     id="path4"
     style="fill:none" />
  <path
     d="M19.75 14.438c59.538 112.29 142.51 202.35 232.28 292.718l3.626 3.75.063-.062c21.827 21.93 44.04 43.923 66.405 66.25-18.856 14.813-38.974 28.2-59.938 40.312l28.532 28.53 68.717-68.717c42.337 27.636 76.286 63.646 104.094 105.81l28.064-28.06c-42.47-27.493-79.74-60.206-106.03-103.876l68.936-68.938-28.53-28.53c-11.115 21.853-24.413 42.015-39.47 60.593-43.852-43.8-86.462-85.842-130.125-125.47-.224-.203-.432-.422-.656-.625C183.624 122.75 108.515 63.91 19.75 14.437zm471.875 0c-83.038 46.28-154.122 100.78-221.97 161.156l22.814 21.562 56.81-56.812 13.22 13.187-56.438 56.44 24.594 23.186c61.802-66.92 117.6-136.92 160.97-218.72zm-329.53 125.906l200.56 200.53c-4.36 4.443-8.84 8.793-13.405 13.032L148.875 153.53l13.22-13.186zm-76.69 113.28l-28.5 28.532 68.907 68.906c-26.29 43.673-63.53 76.414-106 103.907l28.063 28.06c27.807-42.164 61.758-78.174 104.094-105.81l68.718 68.717 28.53-28.53c-20.962-12.113-41.08-25.5-59.937-40.313 17.865-17.83 35.61-35.433 53.157-52.97l-24.843-25.655-55.47 55.467c-4.565-4.238-9.014-8.62-13.374-13.062l55.844-55.844-24.53-25.374c-18.28 17.856-36.602 36.06-55.158 54.594-15.068-18.587-28.38-38.758-39.5-60.625z"
     fill="#fff"
     fill-rule="evenodd"
     id="path6"
     style="fill:#357a38;fill-opacity:1" />
  <path
     style="fill:none;fill-opacity:1"
     d="m 0.43389831,256.21695 0,-254.9152551 254.91525169,0 254.91526,0 0,254.9152551 0,254.91525 -254.91526,0 -254.91525169,0 0,-254.91525 z M 66.097523,460.07739 c 17.995526,-23.95629 52.032207,-57.78983 72.364297,-71.9324 l 13.06669,-9.08891 33.44339,33.49569 c 18.39387,18.42262 34.45967,33.49569 35.70181,33.49569 1.24212,0 8.57598,-6.43875 16.29744,-14.3083 13.00246,-13.25186 13.73136,-14.49329 9.87216,-16.81356 -6.83231,-4.10782 -47.58973,-31.47225 -51.75383,-34.7474 -3.54174,-2.78565 -1.70205,-5.14755 22.77967,-29.24589 l 26.63254,-26.21549 -13.5545,-13.61328 -13.55453,-13.61325 -27.75034,27.68876 -27.75034,27.68875 -5.83938,-6.09499 -5.83938,-6.09502 27.07644,-27.01143 c 14.89204,-14.85628 27.07644,-28.03568 27.07644,-29.28757 0,-1.2519 -5.30299,-7.51329 -11.78443,-13.9142 l -11.78444,-11.63807 -27.80878,26.38989 -27.80879,26.38989 -6.79858,-7.97277 c -3.73923,-4.38502 -12.4515,-17.33576 -19.360618,-28.77941 -6.909115,-11.44366 -12.906954,-21.24013 -13.328532,-21.76994 -1.137471,-1.42948 -28.851252,26.50338 -28.851252,29.07932 0,1.21412 15.16513,17.39488 33.700287,35.95724 l 33.700285,33.74972 -11.3277,16.17326 c -18.787939,26.82465 -52.934889,58.67055 -88.672016,82.69669 l -5.366958,3.60824 14.054587,14.30578 c 7.730022,7.86818 14.676269,14.05466 15.436106,13.74772 0.759838,-0.30694 8.739351,-10.3531 17.732254,-22.32476 z m 413.365287,9.18228 13.54763,-13.66912 -23.95394,-17.92002 C 439.88376,415.84629 413.18372,389.49589 398.12782,367.67065 L 386.8726,351.3549 421.4354,316.84274 455.9982,282.3306 441.42677,267.64665 c -8.01428,-8.07617 -15.14898,-14.68394 -15.85491,-14.68394 -0.70591,0 -3.01633,3.66102 -5.13425,8.1356 -3.52189,7.44077 -22.74645,37.06003 -30.4965,46.98593 -3.05688,3.91511 -5.31565,2.10003 -41.84719,-33.62712 C 248.10995,176.67472 183.99032,121.41656 112.38655,71.324952 80.22415,48.825218 22.321664,13.402629 20.569561,15.154734 c -1.490575,1.490575 17.319558,34.693143 35.784029,63.16391 44.71507,68.947146 95.26064,128.160476 197.71602,231.621226 37.78187,38.15259 65.22053,67.49178 64.05831,68.49532 -7.56738,6.53425 -22.04693,16.71014 -38.23878,26.87334 l -18.84985,11.83154 15.06968,14.95419 15.0697,14.95422 34.31826,-34.26796 34.31825,-34.26799 17.19073,12.7713 c 27.77038,20.63113 66.63942,61.75527 80.42294,85.08889 2.13003,3.60585 4.91082,6.55609 6.17956,6.55609 1.26872,0 8.4032,-6.15111 15.8544,-13.66914 z M 351.95767,211.2 c 27.04699,-30.238 64.97964,-77.76113 86.15079,-107.9322 25.37041,-36.155443 56.87251,-88.949156 53.07611,-88.949156 -2.8291,0 -49.0527,27.978739 -75.349,45.608066 -41.71468,27.965996 -95.95044,70.00255 -137.46473,106.54489 l -9.70509,8.54276 11.73062,11.87816 11.73061,11.87816 28.29436,-28.23612 28.29435,-28.23612 5.93647,5.93646 5.93644,5.93646 -27.61775,27.6792 -27.61776,27.6792 11.80527,11.95376 c 6.49292,6.57458 12.50356,11.95377 13.35701,11.95377 0.85344,0 10.50247,-10.00678 21.4423,-22.23729 z"
     id="path4142"
     inkscape:connector-curvature="0" />
  <path
     style="fill:none;fill-opacity:1"
     d="m 0.43389831,256.21695 0,-254.9152551 254.91525169,0 254.91526,0 0,254.9152551 0,254.91525 -254.91526,0 -254.91525169,0 0,-254.91525 z M 66.097523,460.07739 c 17.995526,-23.95629 52.032207,-57.78983 72.364297,-71.9324 l 13.06669,-9.08891 33.44339,33.49569 c 18.39387,18.42262 34.45967,33.49569 35.70181,33.49569 1.24212,0 8.57598,-6.43875 16.29744,-14.3083 13.00246,-13.25186 13.73136,-14.49329 9.87216,-16.81356 -6.83231,-4.10782 -47.58973,-31.47225 -51.75383,-34.7474 -3.54174,-2.78565 -1.70205,-5.14755 22.77967,-29.24589 l 26.63254,-26.21549 -13.5545,-13.61328 -13.55453,-13.61325 -27.75034,27.68876 -27.75034,27.68875 -5.83938,-6.09499 -5.83938,-6.09502 27.07644,-27.01143 c 14.89204,-14.85628 27.07644,-28.03568 27.07644,-29.28757 0,-1.2519 -5.30299,-7.51329 -11.78443,-13.9142 l -11.78444,-11.63807 -27.80878,26.38989 -27.80879,26.38989 -6.79858,-7.97277 c -3.73923,-4.38502 -12.4515,-17.33576 -19.360618,-28.77941 -6.909115,-11.44366 -12.906954,-21.24013 -13.328532,-21.76994 -1.137471,-1.42948 -28.851252,26.50338 -28.851252,29.07932 0,1.21412 15.16513,17.39488 33.700287,35.95724 l 33.700285,33.74972 -11.3277,16.17326 c -18.787939,26.82465 -52.934889,58.67055 -88.672016,82.69669 l -5.366958,3.60824 14.054587,14.30578 c 7.730022,7.86818 14.676269,14.05466 15.436106,13.74772 0.759838,-0.30694 8.739351,-10.3531 17.732254,-22.32476 z m 413.365287,9.18228 13.54763,-13.66912 -23.95394,-17.92002 C 439.88376,415.84629 413.18372,389.49589 398.12782,367.67065 L 386.8726,351.3549 421.4354,316.84274 455.9982,282.3306 441.42677,267.64665 c -8.01428,-8.07617 -15.14898,-14.68394 -15.85491,-14.68394 -0.70591,0 -3.01633,3.66102 -5.13425,8.1356 -3.52189,7.44077 -22.74645,37.06003 -30.4965,46.98593 -3.05688,3.91511 -5.31565,2.10003 -41.84719,-33.62712 C 248.10995,176.67472 183.99032,121.41656 112.38655,71.324952 80.22415,48.825218 22.321664,13.402629 20.569561,15.154734 c -1.490575,1.490575 17.319558,34.693143 35.784029,63.16391 44.71507,68.947146 95.26064,128.160476 197.71602,231.621226 37.78187,38.15259 65.22053,67.49178 64.05831,68.49532 -7.56738,6.53425 -22.04693,16.71014 -38.23878,26.87334 l -18.84985,11.83154 15.06968,14.95419 15.0697,14.95422 34.31826,-34.26796 34.31825,-34.26799 17.19073,12.7713 c 27.77038,20.63113 66.63942,61.75527 80.42294,85.08889 2.13003,3.60585 4.91082,6.55609 6.17956,6.55609 1.26872,0 8.4032,-6.15111 15.8544,-13.66914 z M 351.95767,211.2 c 27.04699,-30.238 64.97964,-77.76113 86.15079,-107.9322 25.37041,-36.155443 56.87251,-88.949156 53.07611,-88.949156 -2.8291,0 -49.0527,27.978739 -75.349,45.608066 -41.71468,27.965996 -95.95044,70.00255 -137.46473,106.54489 l -9.70509,8.54276 11.73062,11.87816 11.73061,11.87816 28.29436,-28.23612 28.29435,-28.23612 5.93647,5.93646 5.93644,5.93646 -27.61775,27.6792 -27.61776,27.6792 11.80527,11.95376 c 6.49292,6.57458 12.50356,11.95377 13.35701,11.95377 0.85344,0 10.50247,-10.00678 21.4423,-22.23729 z"
     id="path4144"
     inkscape:connector-curvature="0" />
  <path
     style="fill:none;fill-opacity:1"
     d="m 0.43389831,256.21695 0,-254.9152551 254.91525169,0 254.91526,0 0,254.9152551 0,254.91525 -254.91526,0 -254.91525169,0 0,-254.91525 z M 66.097523,460.07739 c 17.995526,-23.95629 52.032207,-57.78983 72.364297,-71.9324 l 13.06669,-9.08891 33.44339,33.49569 c 18.39387,18.42262 34.45967,33.49569 35.70181,33.49569 1.24212,0 8.57598,-6.43875 16.29744,-14.3083 13.00246,-13.25186 13.73136,-14.49329 9.87216,-16.81356 -6.83231,-4.10782 -47.58973,-31.47225 -51.75383,-34.7474 -3.54174,-2.78565 -1.70205,-5.14755 22.77967,-29.24589 l 26.63254,-26.21549 -13.5545,-13.61328 -13.55453,-13.61325 -27.75034,27.68876 -27.75034,27.68875 -5.83938,-6.09499 -5.83938,-6.09502 27.07644,-27.01143 c 14.89204,-14.85628 27.07644,-28.03568 27.07644,-29.28757 0,-1.2519 -5.30299,-7.51329 -11.78443,-13.9142 l -11.78444,-11.63807 -27.80878,26.38989 -27.80879,26.38989 -6.79858,-7.97277 c -3.73923,-4.38502 -12.4515,-17.33576 -19.360618,-28.77941 -6.909115,-11.44366 -12.906954,-21.24013 -13.328532,-21.76994 -1.137471,-1.42948 -28.851252,26.50338 -28.851252,29.07932 0,1.21412 15.16513,17.39488 33.700287,35.95724 l 33.700285,33.74972 -11.3277,16.17326 c -18.787939,26.82465 -52.934889,58.67055 -88.672016,82.69669 l -5.366958,3.60824 14.054587,14.30578 c 7.730022,7.86818 14.676269,14.05466 15.436106,13.74772 0.759838,-0.30694 8.739351,-10.3531 17.732254,-22.32476 z m 413.365287,9.18228 13.54763,-13.66912 -23.95394,-17.92002 C 439.88376,415.84629 413.18372,389.49589 398.12782,367.67065 L 386.8726,351.3549 421.4354,316.84274 455.9982,282.3306 441.42677,267.64665 c -8.01428,-8.07617 -15.14898,-14.68394 -15.85491,-14.68394 -0.70591,0 -3.01633,3.66102 -5.13425,8.1356 -3.52189,7.44077 -22.74645,37.06003 -30.4965,46.98593 -3.05688,3.91511 -5.31565,2.10003 -41.84719,-33.62712 C 248.10995,176.67472 183.99032,121.41656 112.38655,71.324952 80.22415,48.825218 22.321664,13.402629 20.569561,15.154734 c -1.490575,1.490575 17.319558,34.693143 35.784029,63.16391 44.71507,68.947146 95.26064,128.160476 197.71602,231.621226 37.78187,38.15259 65.22053,67.49178 64.05831,68.49532 -7.56738,6.53425 -22.04693,16.71014 -38.23878,26.87334 l -18.84985,11.83154 15.06968,14.95419 15.0697,14.95422 34.31826,-34.26796 34.31825,-34.26799 17.19073,12.7713 c 27.77038,20.63113 66.63942,61.75527 80.42294,85.08889 2.13003,3.60585 4.91082,6.55609 6.17956,6.55609 1.26872,0 8.4032,-6.15111 15.8544,-13.66914 z M 351.95767,211.2 c 27.04699,-30.238 64.97964,-77.76113 86.15079,-107.9322 25.37041,-36.155443 56.87251,-88.949156 53.07611,-88.949156 -2.8291,0 -49.0527,27.978739 -75.349,45.608066 -41.71468,27.965996 -95.95044,70.00255 -137.46473,106.54489 l -9.70509,8.54276 11.73062,11.87816 11.73061,11.87816 28.29436,-28.23612 28.29435,-28.23612 5.93647,5.93646 5.93644,5.93646 -27.61775,27.6792 -27.61776,27.6792 11.80527,11.95376 c 6.49292,6.57458 12.50356,11.95377 13.35701,11.95377 0.85344,0 10.50247,-10.00678 21.4423,-22.23729 z"
     id="path4146"
     inkscape:connector-curvature="0" />
  <path
     style="fill:none;fill-opacity:1"
     d="m 0.43389831,256.21695 0,-254.9152551 254.91525169,0 254.91526,0 0,254.9152551 0,254.91525 -254.91526,0 -254.91525169,0 0,-254.91525 z M 66.097523,460.07739 c 17.995526,-23.95629 52.032207,-57.78983 72.364297,-71.9324 l 13.06669,-9.08891 33.44339,33.49569 c 18.39387,18.42262 34.45967,33.49569 35.70181,33.49569 1.24212,0 8.57598,-6.43875 16.29744,-14.3083 13.00246,-13.25186 13.73136,-14.49329 9.87216,-16.81356 -6.83231,-4.10782 -47.58973,-31.47225 -51.75383,-34.7474 -3.54174,-2.78565 -1.70205,-5.14755 22.77967,-29.24589 l 26.63254,-26.21549 -13.5545,-13.61328 -13.55453,-13.61325 -27.75034,27.68876 -27.75034,27.68875 -5.83938,-6.09499 -5.83938,-6.09502 27.07644,-27.01143 c 14.89204,-14.85628 27.07644,-28.03568 27.07644,-29.28757 0,-1.2519 -5.30299,-7.51329 -11.78443,-13.9142 l -11.78444,-11.63807 -27.80878,26.38989 -27.80879,26.38989 -6.79858,-7.97277 c -3.73923,-4.38502 -12.4515,-17.33576 -19.360618,-28.77941 -6.909115,-11.44366 -12.906954,-21.24013 -13.328532,-21.76994 -1.137471,-1.42948 -28.851252,26.50338 -28.851252,29.07932 0,1.21412 15.16513,17.39488 33.700287,35.95724 l 33.700285,33.74972 -11.3277,16.17326 c -18.787939,26.82465 -52.934889,58.67055 -88.672016,82.69669 l -5.366958,3.60824 14.054587,14.30578 c 7.730022,7.86818 14.676269,14.05466 15.436106,13.74772 0.759838,-0.30694 8.739351,-10.3531 17.732254,-22.32476 z m 413.365287,9.18228 13.54763,-13.66912 -23.95394,-17.92002 C 439.88376,415.84629 413.18372,389.49589 398.12782,367.67065 L 386.8726,351.3549 421.4354,316.84274 455.9982,282.3306 441.42677,267.64665 c -8.01428,-8.07617 -15.14898,-14.68394 -15.85491,-14.68394 -0.70591,0 -3.01633,3.66102 -5.13425,8.1356 -3.52189,7.44077 -22.74645,37.06003 -30.4965,46.98593 -3.05688,3.91511 -5.31565,2.10003 -41.84719,-33.62712 C 248.10995,176.67472 183.99032,121.41656 112.38655,71.324952 80.22415,48.825218 22.321664,13.402629 20.569561,15.154734 c -1.490575,1.490575 17.319558,34.693143 35.784029,63.16391 44.71507,68.947146 95.26064,128.160476 197.71602,231.621226 37.78187,38.15259 65.22053,67.49178 64.05831,68.49532 -7.56738,6.53425 -22.04693,16.71014 -38.23878,26.87334 l -18.84985,11.83154 15.06968,14.95419 15.0697,14.95422 34.31826,-34.26796 34.31825,-34.26799 17.19073,12.7713 c 27.77038,20.63113 66.63942,61.75527 80.42294,85.08889 2.13003,3.60585 4.91082,6.55609 6.17956,6.55609 1.26872,0 8.4032,-6.15111 15.8544,-13.66914 z M 351.95767,211.2 c 27.04699,-30.238 64.97964,-77.76113 86.15079,-107.9322 25.37041,-36.155443 56.87251,-88.949156 53.07611,-88.949156 -2.8291,0 -49.0527,27.978739 -75.349,45.608066 -41.71468,27.965996 -95.95044,70.00255 -137.46473,106.54489 l -9.70509,8.54276 11.73062,11.87816 11.73061,11.87816 28.29436,-28.23612 28.29435,-28.23612 5.93647,5.93646 5.93644,5.93646 -27.61775,27.6792 -27.61776,27.6792 11.80527,11.95376 c 6.49292,6.57458 12.50356,11.95377 13.35701,11.95377 0.85344,0 10.50247,-10.00678 21.4423,-22.23729 z"
     id="path4148"
     inkscape:connector-curvature="0" />
  <path
     style="fill:none;fill-opacity:1"
     d="m 0.43389831,256.21695 0,-254.9152551 254.91525169,0 254.91526,0 0,254.9152551 0,254.91525 -254.91526,0 -254.91525169,0 0,-254.91525 z M 66.097523,460.07739 c 17.995526,-23.95629 52.032207,-57.78983 72.364297,-71.9324 l 13.06669,-9.08891 33.44339,33.49569 c 18.39387,18.42262 34.45967,33.49569 35.70181,33.49569 1.24212,0 8.57598,-6.43875 16.29744,-14.3083 13.00246,-13.25186 13.73136,-14.49329 9.87216,-16.81356 -6.83231,-4.10782 -47.58973,-31.47225 -51.75383,-34.7474 -3.54174,-2.78565 -1.70205,-5.14755 22.77967,-29.24589 l 26.63254,-26.21549 -13.5545,-13.61328 -13.55453,-13.61325 -27.75034,27.68876 -27.75034,27.68875 -5.83938,-6.09499 -5.83938,-6.09502 27.07644,-27.01143 c 14.89204,-14.85628 27.07644,-28.03568 27.07644,-29.28757 0,-1.2519 -5.30299,-7.51329 -11.78443,-13.9142 l -11.78444,-11.63807 -27.80878,26.38989 -27.80879,26.38989 -6.79858,-7.97277 c -3.73923,-4.38502 -12.4515,-17.33576 -19.360618,-28.77941 -6.909115,-11.44366 -12.906954,-21.24013 -13.328532,-21.76994 -1.137471,-1.42948 -28.851252,26.50338 -28.851252,29.07932 0,1.21412 15.16513,17.39488 33.700287,35.95724 l 33.700285,33.74972 -11.3277,16.17326 c -18.787939,26.82465 -52.934889,58.67055 -88.672016,82.69669 l -5.366958,3.60824 14.054587,14.30578 c 7.730022,7.86818 14.676269,14.05466 15.436106,13.74772 0.759838,-0.30694 8.739351,-10.3531 17.732254,-22.32476 z m 413.365287,9.18228 13.54763,-13.66912 -23.95394,-17.92002 C 439.88376,415.84629 413.18372,389.49589 398.12782,367.67065 L 386.8726,351.3549 421.4354,316.84274 455.9982,282.3306 441.42677,267.64665 c -8.01428,-8.07617 -15.14898,-14.68394 -15.85491,-14.68394 -0.70591,0 -3.01633,3.66102 -5.13425,8.1356 -3.52189,7.44077 -22.74645,37.06003 -30.4965,46.98593 -3.05688,3.91511 -5.31565,2.10003 -41.84719,-33.62712 C 248.10995,176.67472 183.99032,121.41656 112.38655,71.324952 80.22415,48.825218 22.321664,13.402629 20.569561,15.154734 c -1.490575,1.490575 17.319558,34.693143 35.784029,63.16391 44.71507,68.947146 95.26064,128.160476 197.71602,231.621226 37.78187,38.15259 65.22053,67.49178 64.05831,68.49532 -7.56738,6.53425 -22.04693,16.71014 -38.23878,26.87334 l -18.84985,11.83154 15.06968,14.95419 15.0697,14.95422 34.31826,-34.26796 34.31825,-34.26799 17.19073,12.7713 c 27.77038,20.63113 66.63942,61.75527 80.42294,85.08889 2.13003,3.60585 4.91082,6.55609 6.17956,6.55609 1.26872,0 8.4032,-6.15111 15.8544,-13.66914 z M 351.95767,211.2 c 27.04699,-30.238 64.97964,-77.76113 86.15079,-107.9322 25.37041,-36.155443 56.87251,-88.949156 53.07611,-88.949156 -2.8291,0 -49.0527,27.978739 -75.349,45.608066 -41.71468,27.965996 -95.95044,70.00255 -137.46473,106.54489 l -9.70509,8.54276 11.73062,11.87816 11.73061,11.87816 28.29436,-28.23612 28.29435,-28.23612 5.93647,5.93646 5.93644,5.93646 -27.61775,27.6792 -27.61776,27.6792 11.80527,11.95376 c 6.49292,6.57458 12.50356,11.95377 13.35701,11.95377 0.85344,0 10.50247,-10.00678 21.4423,-22.23729 z"
     id="path4150"
     inkscape:connector-curvature="0" />
</svg>
